ply
format ascii 1.0
element vertex 330
property float x
property float y
property float z
end_header
0.018701251751104892 0.03927327983984913 -0.024716339216960086
0.018109680707578776 0.038794162977557084 -0.02439902552162127
0.01748883683601673 0.03827474585896121 -0.024056141946968097
0.016872074151967675 0.037741126778594536 -0.023704692236249495
0.016227579396988552 0.037164347546464964 -0.02332730752172167
0.018702963715874838 0.039274674866567244 -0.02467774693637995
0.018111383031355913 0.03879559390364177 -0.02436097147884523
0.017490527996920018 0.038276214868142935 -0.024018669234894992
0.016873753137082267 0.03774263403745801 -0.023667813946111962
0.016229244356963324 0.037165895207228614 -0.02329107141051584
0.01867178011516009 0.03924964193916921 -0.024620965121973273
0.018113085320847766 0.03879702480148958 -0.02432291856386622
0.017492219122979692 0.038277683847507626 -0.023981197643783203
0.016875432087071596 0.03774414126491228 -0.023630936764320924
0.016230909281405366 0.03716744283501531 -0.023254836397037106
0.018706387544257203 0.03927746484039004 -0.02460056578797077
0.018114787575644768 0.03879845567169356 -0.02428486679764922
0.017493910213763265 0.038279152797646626 -0.023943727194965334
0.016877111001481558 0.03774564846154629 -0.023594060712549082
0.01623257416983672 0.03716899043041168 -0.02321860250333033
0.018675202931916775 0.0392524358426096 -0.024543843375748844
0.01811648979533413 0.03879988651485208 -0.02424681620129685
0.017463075789903665 0.03825276571815163 -0.023887364301709672
0.016878789879854403 0.03774715562795429 -0.023557185812611438
0.016234239021775558 0.03717053799400968 -0.023182369751585177
0.018676914288552338 0.03925383275641269 -0.02450528427552642
0.018085466084137948 0.03877420065000844 -0.024190293059059627
0.017464766230716675 0.03825423662253696 -0.02384992622098651
0.01688046872172865 0.037748662764735874 -0.023520312086466478
0.016235903836736093 0.03717208552640664 -0.023146138164137298
0.018678625610165017 0.039255229645749 -0.02446672638519868
0.018087167709727063 0.038775633441903434 -0.024152274117165955
0.01746645663507674 0.038255707499370566 -0.023812489343318487
0.016882147526639038 0.037750169872496075 -0.0234834395562174
0.01623756861422864 0.03717363302820534 -0.02310990776346953
0.018680336896355045 0.03925662651123376 -0.02442816972591472
0.018088869299087776 0.038777066208443636 -0.024114256405222325
0.01746814700253705 0.03825717834926482 -0.023775053690606337
0.01688382629411654 0.037751676951845385 -0.023446568244113272
0.016239233353759513 0.037175180500014 -0.02307367857221318
0.018682048146719404 0.039258023353487694 -0.02438961431896345
0.018090570851793615 0.03877849895024859 -0.024076239944894298
0.017469837332647162 0.03825864917283756 -0.02373761928489556
0.016853197077342084 0.03772459515553816 -0.02339053653332456
0.01624089805483095 0.037176727942446405 -0.023037450613149223
0.018683759360851777 0.03925942017313706 -0.024351060185774695
0.0180922723674146 0.0387799316679434 -0.024038224757990927
0.017471527624952916 0.038260119970712284 -0.023700186148377725
0.01685487513452956 0.03772610419840794 -0.023353698493052077
0.016242562716941168 0.03717827535612197 -0.02300122390920961
0.018685470538342495 0.03926081697081368 -0.024312507347920398
0.01809397384551724 0.03878136436215881 -0.024000210866465956
0.017473217878996486 0.03826159074351805 -0.02366275430339161
0.016856553152999297 0.03772761321460236 -0.02331686173446073
0.016244227339584243 0.03717982274166572 -0.02296499848347848
0.0186871816787786 0.039262213747155085 -0.02427395582711589
0.01809567528566452 0.03878279703353123 -0.02396219829241901
0.017474908094316233 0.03826306149188961 -0.023625323772424475
0.016858231132266685 0.037729122204753926 -0.023280026280396496
0.016245891922250094 0.03718137009970844 -0.022928774359193473
0.018656001460320773 0.039237163790838046 -0.02421747961972147
0.018097376687415796 0.038784229682702745 -0.023924187058096825
0.017476598270446786 0.038264532216467535 -0.023587894578113368
0.016859909071843086 0.03773063116950093 -0.023243192153857513
0.01624755646442446 0.037182917430886704 -0.02289255155974705
0.018690603846818036 0.03926500723841086 -0.024196856824241372
0.018099078050326844 0.03878566231032135 -0.023886177185894586
0.017478288406918896 0.038266002917898126 -0.023550466743246297
0.016861586971235853 0.03773214010948741 -0.02320635937799534
0.01624922096558884 0.037184464735842894 -0.022856330108687782
0.018659422605891235 0.03923996122241667 -0.024140440438310054
0.01810077937394975 0.038787094917040785 -0.023848168698357042
0.017479978503259483 0.03826747359683363 -0.023513040290763603
0.016863264829948266 0.03773364902536338 -0.023169527976116315
0.01625088542522042 0.03718601201522532 -0.02282011002972164
0.01866113312097918 0.039241359909568764 -0.024101922938455242
0.01810248065783291 0.0387885275035208 -0.0238101616181799
0.017481668558991525 0.03826894425393218 -0.02347561524375918
0.016864942647479515 0.03773515791778475 -0.02313269797168281
0.016252549842792105 0.03718755926968828 -0.022783891346713395
0.018662843597029646 0.039242758578515675 -0.024063406862386404
0.018071460158552134 0.038762826500581535 -0.023753983313166378
0.017483358573634054 0.03827041488985791 -0.023438191625481795
0.016866620423324624 0.03773666678741348 -0.023095869388314615
0.016254214217772393 0.03718910649989208 -0.02274767408368792
0.018664554033608713 0.03924415722992962 -0.024024892232705736
0.018073160837576305 0.03876426104863129 -0.023716008362519074
0.017485048546702173 0.038271885505281114 -0.023400769459336508
0.01683599654257037 0.03770956570799711 -0.02304013697703588
0.016255878549625402 0.037190653706503166 -0.022711458264831605
0.018666264430278884 0.039245555864488926 -0.02398637907216752
0.01807486147562063 0.03876569557831527 -0.023678034884185926
0.017486738477706855 0.038273356100878064 -0.023363348768885798
0.01686997584791558 0.03773968446097127 -0.023022216580048237
0.016257542837810758 0.037192200890194094 -0.022675243914493638
0.01863508911147209 0.03922048300417462 -0.02393012076177617
0.01807656207221825 0.03876713009031703 -0.02364006290148025
0.017455905175550228 0.03824696174470955 -0.02330746548863677
0.01687165349563037 0.03774119326625489 -0.022985392403188677
0.016227145365346758 0.037164398811852226 -0.02261980876704537
0.018636798951899666 0.03922188359665501 -0.023891639160628027
0.018078262626898434 0.03876856458532636 -0.02360209243787279
0.017457594442009318 0.03824843431206042 -0.023270077818694702
0.016841027578514932 0.03771409817722061 -0.022929756772691136
0.01622880887159961 0.037165947975496424 -0.022583628957936086
0.018638508751217177 0.03922328417420618 -0.023853159093779684
0.018079963139186514 0.038769999064039336 -0.02356412351699312
0.01745928366505442 0.03824990686151272 -0.023232691692023858
0.016842704502936998 0.03771560896032435 -0.022892966413689066
0.016230472332684903 0.0371674971181463 -0.022547450687276295
0.01864021850897226 0.039224684737530977 -0.023814680584607957
0.01808166360860384 0.03877143352715841 -0.023526156162631005
0.017460972844179995 0.038251379393767534 -0.02319530713283157
0.01684438138269828 0.037717119724602254 -0.02285617761676177
0.01623213574804394 0.037169046240499284 -0.022511273980081646
0.018641928224708768 0.03922608528733862 -0.02377620365664837
0.018083364034667752 0.038772867975392485 -0.02348819039873775
0.017462661978876207 0.03825285190953238 -0.023157924165489598
0.01687836364372062 0.03774722829351767 -0.02283811111230437
0.016233799117113305 0.037170595343259345 -0.022475098861537757
0.01864363789796672 0.03922748582434482 -0.023737728333596532
0.01805234841166147 0.03874714593780114 -0.023432267313681157
0.01746435106862896 0.0382543244095213 -0.023120542814535537
0.016880041067385942 0.03774873700537893 -0.0228012947671061
0.016267527619068918 0.03720148354947557 -0.022457990035783006
0.01864534752828225 0.039228886349271866 -0.023699254639309532
0.018054048223749036 0.03874858235787684 -0.023394334056793552
0.01746604011291982 0.03825579689445494 -0.023083163104674245
0.016881718444626638 0.0377502457006867 -0.022764480062859478
0.01623712571410555 0.03717369349284933 -0.02240275349200343
0.018647057115187646 0.03923028686284869 -0.023660782597807357
0.018055747991147564 0.03875001876508825 -0.023356402459165836
0.017467729111225967 0.03825726936506065 -0.023045785060779325
0.016851088444361992 0.037723162607662605 -0.022709038547552365
0.016238788940877727 0.037175242541120354 -0.022366583292247392
0.018648766658211205 0.03923168736581086 -0.023622312233274278
0.018057447713357842 0.03875145516017021 -0.02331847254541067
0.017469418063020208 0.038258741822072534 -0.02300840870789456
0.01685276509269934 0.03772467328852473 -0.02267225793580288
0.016240452119058675 0.037176791572680674 -0.02233041478361388
0.018650476156877246 0.03923308785890076 -0.023583843570060256
0.01805914738987647 0.03875289154386442 -0.023280544340309448
0.01747110696777085 0.03826021426623147 -0.022971034071235373
0.01685444169309573 0.03772618395489325 -0.02263547903724994
0.016242115248060747 0.03717834058826786 -0.022294247992160704
0.018619304172368414 0.0392079980539227 -0.023527895410314945
0.018060847020195767 0.03875432791691941 -0.023242617868813667
0.017472795824941684 0.038261686698285294 -0.02293366117619039
0.016856118244988193 0.03772769460751398 -0.022598701877687574
0.01624377832729139 0.037179889588626426 -0.02225808294412466
0.0186210131042735 0.03920940051823766 -0.023489458775097234
0.018029837409774374 0.038728580897363044 -0.023186889783377636
0.017441966051911485 0.03823527719645945 -0.02287813581416955
0.016857794747808942 0.03772920524713976 -0.022561926483087295
0.016245441356152926 0.03718143857450785 -0.022221919665923077
0.01862272199050235 0.039210802974797225 -0.023451023911233788
0.018031536418275228 0.038730019250548454 -0.02314899612375744
0.017443654231955784 0.03823675161484753 -0.022840796472246374
0.016859471200985354 0.03773071587453044 -0.022525152879599636
0.016247104334042625 0.03718298754667078 -0.022185758184155475
0.018624430830562824 0.03921220542437106 -0.023412590843753113
0.018033235379164105 0.03873145759523395 -0.02311110426959013
0.017445342362924422 0.038238226023271864 -0.022803458945095938
0.016861147603939926 0.03773222649045309 -0.022488381093555734
0.01624876726035262 0.037184536505880994 -0.02214959852560508
0.018626139623958607 0.039213607867735985 -0.02337415959785679
0.01803493429191573 0.03873289593219578 -0.023073214246523865
0.017447030444262622 0.03823970042250809 -0.02276612325881578
0.01686282395609022 0.037733737095681924 -0.022451611151468914
0.0162504301344698 0.037186085452911556 -0.022113440717240442
0.018627848370189104 0.03921501030567602 -0.023335730198921004
0.018036633156000327 0.03873433426221749 -0.023035326080384565
0.017448718475410845 0.03824117481333914 -0.0227287894396843
0.016864500256848804 0.03773524769099856 -0.022414843080036263
0.016252092955775815 0.03718763438854281 -0.022077284786217087
0.018629557068749462 0.03921641273898255 -0.023297302672498098
0.018038331970883573 0.038735772586089894 -0.022997439797177388
0.017450406455804764 0.03824264919655531 -0.022691457514162364
0.016866176505623214 0.03773675827719193 -0.022378076906140288
0.016253755723647033 0.0371891833135626 -0.022041130759879162
0.018598389963550892 0.039191300090208166 -0.02324157595398877
0.01804003073602657 0.03873721090461124 -0.022959555423088383
0.01741958333072334 0.0382162146065009 -0.022636133515296884
0.016867852701815858 0.03773826885505845 -0.022341312656850482
0.016255418437454414 0.037190732228766205 -0.02200497866576108
0.01863297432081864 0.03921921759489731 -0.023220453340290197
0.018041729450885773 0.03873864921858731 -0.02292167298448606
0.017421270625443637 0.03821769098476001 -0.022598835465723204
0.016837226573932537 0.03771117058597981 -0.022286240141015164
0.01625708109656352 0.03719228113495649 -0.021968828531589192
0.01863468287329588 0.03922062001912546 -0.023182031586504594
0.01801072469789137 0.03871288122306692 -0.022866203595735064
0.017422957867827236 0.03821916735767293 -0.022561539386194738
0.016838902027319948 0.03771268316493156 -0.022249510552658277
0.016258743700334415 0.03719383003294405 -0.02193268038528351
0.01860351418531852 0.039195513328068615 -0.023126396396323745
0.018012422780848088 0.03871432152888789 -0.022828354384566193
0.017424645057289995 0.03822064372605967 -0.0225242453039195
0.016872880968850083 0.037742800546775084 -0.02223103173015352
0.01626040624812164 0.03719537892354715 -0.021896534254959393
0.018605222159685623 0.039196917738145154 -0.02308800717312931
0.01801412081199797 0.03871576183247419 -0.02279050718506338
0.01742633219324273 0.038222120090748025 -0.022486953246296168
0.01684225277068996 0.03771570830555562 -0.022176057412411708
0.016262068739274133 0.037196927807591956 -0.0218603901689293
0.018606930083392738 0.03919832214833725 -0.023049619975533113
0.018015818790778383 0.038717202134661885 -0.02275266202434244
0.01742801927509114 0.0382235964525737 -0.02244966324091583
0.016843928059430018 0.037717220868889 -0.022139333916388167
0.016263731173135162 0.03719847668591252 -0.02182424815570453
0.018608637955903604 0.039199726559489154 -0.023011234830365962
0.01801751671662174 0.0387186424362949 -0.02271481892970984
0.017429706302235767 0.038225072812380315 -0.02241237531556363
0.01681330991614545 0.03769009541839858 -0.022084436501374195
0.01626539354904232 0.03720002555935096 -0.021788108243996997
0.018610345776677292 0.03920113097245297 -0.02297285176464768
0.018019214588955557 0.03872008273822517 -0.02267697792866448
0.017431393274071907 0.03822654917101949 -0.022375089498220507
0.016814984453861682 0.037691609990499336 -0.022047747957115033
0.016267055866327346 0.037201574428757433 -0.021751970462720996
0.018612053545168185 0.039202535388088953 -0.02293447080558883
0.018020912407202327 0.03872152304131274 -0.022639139048899373
0.017433080189989604 0.03822802552935106 -0.02233780581706497
0.016816658934311925 0.037693124560631584 -0.02201106155280825
0.016236652239184454 0.03717378524531406 -0.02169738030528616
0.01858089024834711 0.03917740390421591 -0.022879028524943806
0.018022610170779524 0.03872296334642582 -0.022601302318303408
0.01743476704937355 0.03822950188824301 -0.02230052430047485
0.016818333356850075 0.03769463912966171 -0.02197437731728514
0.01623831374486541 0.03717533612989289 -0.021661278340569017
0.01858259743045171 0.03917881031529492 -0.02284068042827845
0.01799161025688978 0.038697174414065755 -0.02254609369161312
0.017436453851603077 0.038230978248571704 -0.02226324497702909
0.016820007720824412 0.03769615369846447 -0.02193769527958136
0.016239975190030988 0.03717688701289746 -0.021625178590172812
0.0185843045587393 0.03918021673151597 -0.022802334517053845
0.017993307377862103 0.03869861672367153 -0.0225082906279558
0.017405634174519957 0.038204528627848636 -0.0222082845367955
0.01682168202557742 0.03769766826792303 -0.021901015468938773
0.01624163657398915 0.037178437895210754 -0.02158908108384079
0.01855314827086331 0.03915505448880635 -0.022746993880403236
0.017995004442521743 0.03870005903780079 -0.022470489794296014
0.017407320276684644 0.038206007000405585 -0.022171039690129023
0.016823356270445865 0.03769918283892911 -0.02186433791480725
0.016243297896041786 0.03717998877772432 -0.02155298585152783
0.01855485480720532 0.0391564629056265 -0.022708681018516978
0.017996701450265364 0.03870150135735485 -0.022432691219325007
0.017409006319939045 0.03820748537692597 -0.02213379711952007
0.016825030454760623 0.03770069741238303 -0.021827662646846616
0.016244959155484587 0.037181539661338366 -0.02151689292340235
0.01855656128815144 0.039157871330131135 -0.022670370422635644
0.017998398400484263 0.038702943683243694 -0.022394894931938875
0.01737819521053493 0.03818100469158442 -0.022078944419094304
0.01682670457784667 0.037702211989193865 -0.021790989694928466
0.016246620351607073 0.03718309054696193 -0.021480802329848288
0.01855826771312139 0.03915927976323832 -0.022632062121356045
0.01800009529256439 0.03870438601638602 -0.022357100961240405
0.01737988054762308 0.038182485085466934 -0.022041736520720744
0.016828378639023048 0.037703726570279504 -0.02175431908913819
0.01624828148369243 0.03718464143551285 -0.02144471410146698
0.018559974081529748 0.03916068820587488 -0.02259375614347986
0.018001792125886228 0.03870582835770939 -0.022319309336540923
0.017381565823994027 0.03818396548591456 -0.022004530983197997
0.01683005263760267 0.03770524115656676 -0.02171765085977677
0.016217884276379838 0.03715683107250533 -0.02139040640972502
0.018561680392785926 0.03916209665897658 -0.02255545251801555
0.018003488899824775 0.03870727070815028 -0.02228152008736224
0.017383251038987517 0.038185445893863336 -0.021967327836566818
0.016831726572892433 0.03770675574899147 -0.021680985037362877
0.016219544583991607 0.037158383989490354 -0.02135435447988521
0.018563386646294082 0.03916350512348817 -0.022517151274180226
0.018005185613749475 0.03870871306865431 -0.02224373324343854
0.0173849361919374 0.03818692631025842 -0.021930127111084108
0.01676883473670221 0.03765092491407242 -0.02160865034930174
0.016221204825523555 0.037159936912063735 -0.021318305004266163
0.018565092841453038 0.03916491360036352 -0.02247885244140157
0.017974189924087787 0.03868290525042893 -0.022188819270486562
0.01738662128217159 0.0381884067360541 -0.02189292883722484
0.016770507261459268 0.037652443549138326 -0.021572050954322235
0.016222865000232914 0.03716148984117926 -0.021282258014359942
0.018566798977656285 0.03916632209056566 -0.0224405560493197
0.017975885982889177 0.03868434963085315 -0.02215106661480832
0.017388306309012017 0.03818988717221406 -0.02185573304568414
0.016804457783615993 0.037682650510454246 -0.0215532376016675
0.01622452510737033 0.03716304277780012 -0.02124621354188614
0.018568505054291903 0.03916773059506703 -0.02240226212778918
0.017977581979885734 0.038685794024070706 -0.022113316450857835
0.01735750119225065 0.03816338348786401 -0.02180111865301969
0.01680613081955718 0.037684167150238174 -0.021516612449087084
0.01619413659028341 0.037135205193858656 -0.021192088344856495
0.0185702110707425 0.03916913911484942 -0.022363970706880967
0.017979277914423948 0.03868723843106379 -0.02207556880923958
0.017359185501846945 0.03816486595374515 -0.02176395796236912
0.016807803788791077 0.037685683800824 -0.021479989855320743
0.016195795863443878 0.037136760167756314 -0.02115608049847332
0.018571917026385068 0.039170547650904136 -0.02232568181688433
0.017980973785844477 0.03868868285282418 -0.02203782372078027
0.01739336100229845 0.03819432855265757 -0.02174416087526817
0.016777196702054298 0.037658518186118685 -0.02142567860665287
0.016197455066889493 0.037138315151956605 -0.02112007526198942
0.0185736229205911 0.03917195620423218 -0.02228739548830897
0.017982669593482 0.038690127290353336 -0.022000081216530964
0.01736255392435817 0.03816783092596896 -0.021689644327770284
0.016778868893954052 0.0376600368744741 -0.021389091986572448
0.01619911419984351 0.037139870147460764 -0.021084072668056557
0.018575328752726362 0.039173364775844245 -0.022249111751886964
0.017984365336665233 0.03869157174466252 -0.021962341327769093
0.01736423803586106 0.03816931343432411 -0.021652491447246507
0.016780541017074907 0.03766155557648024 -0.021352508017547116
0.016200773261522125 0.03714142515527992 -0.021048072749564623
0.01857703452215094 0.039174773366760944 -0.022210830638574867
0.01798606101471683 0.03869301621677291 -0.021924604086000565
0.01736592207991014 0.03817079595886621 -0.02161534123390891
0.01678221307066552 0.03766307429315776 -0.021315926732148216
0.016202432251134435 0.03714298017643522 -0.021012075539643835
0.018545878743580005 0.03914960438360176 -0.02215596515660355
0.01798775662695328 0.03869446070771567 -0.021886869522961844
0.01736760605578331 0.03817227850062648 -0.02157819372005211
0.01675161468188542 0.037635879540177504 -0.02126176138387563
0.016172051663538328 0.03711511742176559 -0.020958168199143642
0.018580445870279252 0.03917759061064047 -0.022134276406241292
0.017989452172684918 0.03869590521853217 -0.021849137670622142
0.017369289962751944 0.03817376106064628 -0.02154104893820758
0.016785556966216503 0.03766611177466034 -0.021242772343709478
0.016205750010960668 0.03714609026289 -0.020940089379251646
0.018582151447673938 0.0391789992656948 -0.02209600335027399
0.01799114765121578 0.03869734975027397 -0.021811408561185533
0.01737097380008079 0.03817524363997725 -0.021503906921145788
0.01678722880663984 0.0376676305415778 -0.021206199307013382
0.016175367877857963 0.03711823157737254 -0.0208862506410785
