ply
format ascii 1.0
element vertex 16
property float x
property float y
property float z
end_header
-2.3397901317196146 -13.038211770181938 296.55308118372756
-28.085458893723104 -31.912901343672523 247.01448605108385
-27.06475208250731 -32.764192003394434 253.4559434074754
-26.448623986062124 -33.016389189852326 254.86120281204805
-25.624799587901975 -33.22583124972779 254.92872907875736
-27.18864293809333 -33.03547225991992 263.21262247898545
-27.714090629907776 -32.67447020060866 269.4834877876121
-28.68757464637146 -31.570372988688984 279.9937998679939
-0.6040070887583711 -13.262442382054962 294.81258455565643
0.2055950151010848 -13.3536542805907 293.54103550751495
1.9079249617229557 -13.123186292220998 291.89372568273876
3.6152934336624254 -33.289330663258625 281.0110434345113
3.7340277578122247 -31.467827184255228 285.30210175340034
3.9518468942990927 -29.3683132891618 289.7346526340745
4.000992785534898 -28.347438650353165 291.4436955548512
3.399571942034967 -24.86858053848557 288.95979415094456
